# Blender 3.5.1
# www.blender.org
mtllib door_wall_2m.mtl
o base_1
v 0.025000 0.000000 -0.275000
v 0.025000 0.050000 -0.275000
v 0.275000 0.000000 -0.275000
v 0.275000 0.050000 -0.275000
v 0.025000 0.000000 -0.025000
v 0.025000 0.050000 -0.025000
v 0.275000 0.000000 -0.025000
v 0.275000 0.050000 -0.025000
vn -0.0000 -0.0000 -1.0000
vn 1.0000 -0.0000 -0.0000
vn -0.0000 -0.0000 1.0000
vn -1.0000 -0.0000 -0.0000
vn -0.0000 -1.0000 -0.0000
vt 0.872958 0.615479
vt 0.864294 0.613602
vt 0.864136 0.621878
vt 0.872958 0.619776
vt 0.864294 0.620171
vt 0.872330 0.616987
vt 0.864136 0.611284
vt 0.867549 0.615479
vt 0.867549 0.619776
vt 0.872330 0.622403
vt 0.872564 0.613602
vt 0.863250 0.615326
vt 0.870789 0.621878
vt 0.863250 0.621689
vt 0.872564 0.620171
vt 0.871261 0.615326
vt 0.865512 0.616987
vt 0.870789 0.611284
vt 0.865512 0.622403
vt 0.871261 0.621689
s 1
usemtl Material
f 2/4/1 3/8/1 1/1/1
f 4/10/2 7/17/2 3/6/2
f 8/20/3 5/12/3 7/16/3
f 6/15/4 1/2/4 5/11/4
f 7/18/5 1/3/5 3/7/5
f 2/4/1 4/9/1 3/8/1
f 4/10/2 8/19/2 7/17/2
f 8/20/3 6/14/3 5/12/3
f 6/15/4 2/5/4 1/2/4
f 7/18/5 5/13/5 1/3/5
o base_2
v 0.875000 0.000000 -0.275000
v 0.875000 0.050000 -0.275000
v 1.125000 0.000000 -0.275000
v 1.125000 0.050000 -0.275000
v 0.875000 0.000000 -0.025000
v 0.875000 0.050000 -0.025000
v 1.125000 0.000000 -0.025000
v 1.125000 0.050000 -0.025000
vn -0.0000 -0.0000 -1.0000
vn 1.0000 -0.0000 -0.0000
vn -0.0000 -0.0000 1.0000
vn -1.0000 -0.0000 -0.0000
vn -0.0000 -1.0000 -0.0000
vt 0.868709 0.615150
vt 0.865454 0.613436
vt 0.864136 0.621878
vt 0.868709 0.620822
vt 0.865454 0.619360
vt 0.872319 0.613797
vt 0.864136 0.611284
vt 0.861569 0.615150
vt 0.861569 0.620822
vt 0.872319 0.618511
vt 0.872911 0.613436
vt 0.863972 0.615924
vt 0.870789 0.621878
vt 0.863972 0.621026
vt 0.872911 0.619360
vt 0.870395 0.615924
vt 0.866385 0.613797
vt 0.870789 0.611284
vt 0.866385 0.618511
vt 0.870395 0.621026
s 1
usemtl Material
f 10/24/6 11/28/6 9/21/6
f 12/30/7 15/37/7 11/26/7
f 16/40/8 13/32/8 15/36/8
f 14/35/9 9/22/9 13/31/9
f 15/38/10 9/23/10 11/27/10
f 10/24/6 12/29/6 11/28/6
f 12/30/7 16/39/7 15/37/7
f 16/40/8 14/34/8 13/32/8
f 14/35/9 10/25/9 9/22/9
f 15/38/10 13/33/10 9/23/10
o base_3
v 1.725000 0.000000 -0.275000
v 1.725000 0.050000 -0.275000
v 1.975000 0.000000 -0.275000
v 1.975000 0.050000 -0.275000
v 1.725000 0.000000 -0.025000
v 1.725000 0.050000 -0.025000
v 1.975000 0.000000 -0.025000
v 1.975000 0.050000 -0.025000
vn -0.0000 -0.0000 -1.0000
vn 1.0000 -0.0000 -0.0000
vn -0.0000 -0.0000 1.0000
vn -1.0000 -0.0000 -0.0000
vn -0.0000 -1.0000 -0.0000
vt 0.872822 0.615254
vt 0.861557 0.617167
vt 0.864136 0.621878
vt 0.872822 0.621451
vt 0.861557 0.622465
vt 0.872673 0.616227
vt 0.864136 0.611284
vt 0.865021 0.615254
vt 0.865021 0.621451
vt 0.872673 0.621089
vt 0.868227 0.617167
vt 0.862262 0.614504
vt 0.870789 0.621878
vt 0.862262 0.619025
vt 0.868227 0.622465
vt 0.867954 0.614504
vt 0.866553 0.616227
vt 0.870789 0.611284
vt 0.866553 0.621089
vt 0.867954 0.619025
s 1
usemtl Material
f 18/44/11 19/48/11 17/41/11
f 20/50/12 23/57/12 19/46/12
f 24/60/13 21/52/13 23/56/13
f 22/55/14 17/42/14 21/51/14
f 23/58/15 17/43/15 19/47/15
f 18/44/11 20/49/11 19/48/11
f 20/50/12 24/59/12 23/57/12
f 24/60/13 22/54/13 21/52/13
f 22/55/14 18/45/14 17/42/14
f 23/58/15 21/53/15 17/43/15
o body
v 0.000000 0.050000 -0.300000
v -0.000000 1.150000 -0.300000
v 2.000000 0.050000 -0.300000
v 2.000000 1.150000 -0.300000
v 0.000000 0.050000 0.000000
v 2.000000 0.050000 0.000000
v 0.000000 1.350000 -0.200000
v 2.000000 1.350000 -0.200000
v 2.000000 1.338286 -0.165943
v 2.000000 1.349426 -0.193131
v 2.000000 1.347762 -0.185559
v 2.000000 1.345171 -0.178025
v 2.000000 1.341906 -0.171266
v 0.000000 1.338288 -0.165945
v 0.000000 1.341907 -0.171268
v 0.000000 1.345172 -0.178027
v 0.000000 1.347763 -0.185561
v 0.000000 1.349427 -0.193132
v 2.000000 1.330822 -0.228524
v 2.000000 1.336748 -0.224911
v 2.000000 1.342094 -0.219694
v 2.000000 1.346337 -0.213384
v 2.000000 1.349061 -0.206598
v 0.000000 1.330826 -0.228522
v 0.000000 1.349062 -0.206597
v 0.000000 1.346339 -0.213383
v 0.000000 1.342097 -0.219693
v 0.000000 1.336751 -0.224909
v 0.000000 1.215617 -0.018741
v 0.000000 1.188842 -0.001427
v 0.000000 1.198716 -0.005489
v 0.000000 1.208118 -0.011569
v 2.000000 1.215617 -0.018741
v 2.000000 1.208118 -0.011569
v 2.000000 1.198716 -0.005489
v 2.000000 1.188842 -0.001427
v 2.000000 1.189175 -0.291478
v 2.000000 1.159113 -0.299351
v 2.000000 1.169758 -0.297504
v 2.000000 1.180314 -0.294739
v 0.000000 1.189176 -0.291477
v -0.000000 1.180315 -0.294739
v -0.000000 1.169759 -0.297504
v -0.000000 1.159114 -0.299351
v 2.000000 1.180000 0.000000
v 0.000000 1.180000 -0.000000
vn -0.0000 0.0355 -0.9994
vn -0.0000 -0.0000 -1.0000
vn -0.0000 -1.0000 -0.0000
vn -0.0000 0.3760 -0.9266
vn -0.0000 0.4643 -0.8857
vn -0.0000 0.9996 -0.0290
vn -0.0000 0.9888 0.1493
vn -0.0000 0.9888 0.1492
vn -0.0000 0.9628 0.2704
vn -0.0000 0.9247 0.3808
vn -0.0000 0.8660 0.5000
vn -0.0000 0.7985 0.6020
vn -0.0000 0.6134 -0.7898
vn -0.0000 0.7682 -0.6402
vn -0.0000 0.8838 -0.4678
vn -0.0000 0.8839 -0.4678
vn -0.0000 0.9660 -0.2586
vn -0.0000 0.9660 -0.2585
vn -0.0000 0.7309 0.6825
vn -0.0000 0.6199 0.7847
vn -0.0000 0.4637 0.8860
vn -0.0000 0.2717 0.9624
vn -0.0000 0.1212 -0.9926
vn -0.0000 0.1211 -0.9926
vn -0.0000 0.2124 -0.9772
vn -0.0000 0.2997 -0.9540
vn -1.0000 -0.0000 -0.0000
vn 1.0000 -0.0000 -0.0000
vn -0.0000 0.0799 0.9968
vn -0.0000 -0.0000 1.0000
vn 1.0000 0.0001 -0.0000
vn 1.0000 -0.0002 -0.0000
vn 1.0000 -0.0003 -0.0000
vn 1.0000 0.0003 -0.0000
vt 0.847045 0.599701
vt 0.847051 0.607948
vt 0.855643 0.599701
vt 0.847102 0.599679
vt 0.847051 0.599702
vt 0.847045 0.607947
vt 0.855643 0.607947
vt 0.847102 0.607924
vt 0.855649 0.607948
vt 0.855649 0.599702
vt 0.855617 0.599716
vt 0.855630 0.607909
vt 0.855617 0.607879
vt 0.855630 0.599737
vt 0.847078 0.599737
vt 0.847091 0.607903
vt 0.853946 0.599737
vt 0.852091 0.599737
vt 0.849610 0.599737
vt 0.848305 0.599737
vt 0.847078 0.607909
vt 0.855648 0.606565
vt 0.848305 0.607909
vt 0.849611 0.607909
vt 0.852091 0.607909
vt 0.853947 0.607909
vt 0.000122 0.597253
vt 0.847087 0.607879
vt 0.848068 0.607886
vt 0.849090 0.607902
vt 0.851653 0.607906
vt 0.853706 0.607889
vt 0.999878 0.597255
vt 0.847088 0.599716
vt 0.853794 0.599716
vt 0.851919 0.599716
vt 0.848962 0.599716
vt 0.848044 0.599716
vt 0.855634 0.607931
vt 0.855721 0.600529
vt 0.853150 0.607931
vt 0.854896 0.607931
vt 0.855308 0.607931
vt 0.855634 0.599708
vt 0.855308 0.599708
vt 0.854896 0.599708
vt 0.853150 0.599708
vt 0.845035 0.601269
vt 0.855623 0.607924
vt 0.000122 0.500397
vt 0.850013 0.607929
vt 0.853410 0.607942
vt 0.854648 0.607930
vt 0.855623 0.599679
vt 0.999878 0.500397
vt 0.854658 0.599679
vt 0.853506 0.599679
vt 0.850020 0.599679
vt 0.845220 0.601241
vt 0.853193 0.599708
vt 0.855719 0.600658
vt 0.853193 0.607931
s 1
usemtl Material
f 26/63/16 27/66/17 25/61/17
f 30/70/18 25/62/18 27/65/18
f 65/115/19 43/87/20 61/110/19
f 31/72/21 34/77/22 32/74/21
f 42/86/23 35/78/24 34/77/22
f 41/85/24 36/79/25 35/78/24
f 40/84/25 37/80/26 36/79/25
f 39/83/26 33/75/27 37/80/26
f 43/88/20 52/98/28 44/89/28
f 52/98/28 45/90/29 44/89/28
f 51/97/29 46/91/30 45/90/29
f 50/96/31 47/92/32 46/91/30
f 49/95/33 32/73/21 47/92/32
f 53/99/34 58/105/35 57/104/34
f 56/103/35 59/106/36 58/105/35
f 55/102/36 60/107/37 59/106/36
f 28/68/16 68/118/38 62/111/39
f 68/118/38 63/112/40 62/111/39
f 67/117/40 64/113/41 63/112/40
f 66/116/41 61/109/19 64/113/41
f 56/103/42 49/95/42 68/118/42
f 28/68/43 46/91/43 57/104/43
f 54/101/37 69/120/44 60/107/37
f 38/82/27 57/104/34 33/76/27
f 70/122/44 30/70/45 69/120/44
f 26/63/16 28/67/16 27/66/17
f 30/70/18 29/69/18 25/62/18
f 65/115/19 48/93/20 43/87/20
f 31/72/21 42/86/23 34/77/22
f 42/86/23 41/85/24 35/78/24
f 41/85/24 40/84/25 36/79/25
f 40/84/25 39/83/26 37/80/26
f 39/83/26 38/81/27 33/75/27
f 43/88/20 48/94/20 52/98/28
f 52/98/28 51/97/29 45/90/29
f 51/97/29 50/96/31 46/91/30
f 50/96/31 49/95/33 47/92/32
f 49/95/33 31/71/21 32/73/21
f 53/99/34 56/103/35 58/105/35
f 56/103/35 55/102/36 59/106/36
f 55/102/36 54/101/37 60/107/37
f 28/68/16 26/64/16 68/118/38
f 68/118/38 67/117/40 63/112/40
f 67/117/40 66/116/41 64/113/41
f 66/116/41 65/114/19 61/109/19
f 26/64/42 25/62/42 29/69/42
f 29/69/42 70/121/42 54/100/42
f 54/100/42 55/102/42 56/103/42
f 56/103/42 53/99/42 38/82/42
f 38/82/42 39/83/42 40/84/42
f 40/84/42 41/85/42 42/86/42
f 42/86/42 31/72/42 49/95/42
f 49/95/42 50/96/42 51/97/42
f 51/97/42 52/98/42 48/94/42
f 48/94/42 65/115/42 66/116/42
f 66/116/42 67/117/42 68/118/42
f 68/118/42 26/64/42 29/69/42
f 29/69/42 54/100/42 56/103/42
f 56/103/42 38/82/42 40/84/42
f 40/84/42 42/86/42 49/95/42
f 49/95/42 51/97/42 48/94/42
f 48/94/42 66/116/42 68/118/42
f 68/118/42 29/69/42 56/103/42
f 56/103/42 40/84/42 49/95/42
f 49/95/42 48/94/42 68/118/42
f 58/105/43 59/106/46 60/108/43
f 60/108/43 69/119/43 30/70/43
f 30/70/43 27/66/43 28/68/43
f 28/68/43 62/111/43 63/112/43
f 63/112/43 64/113/46 61/110/43
f 61/110/43 43/88/46 44/89/43
f 44/89/43 45/90/47 46/91/43
f 46/91/43 47/92/43 32/74/43
f 32/74/43 34/77/48 35/78/43
f 35/78/43 36/79/49 37/80/43
f 37/80/43 33/76/43 57/104/43
f 57/104/43 58/105/43 60/108/43
f 60/108/43 30/70/43 28/68/43
f 28/68/43 63/112/43 61/110/43
f 61/110/43 44/89/43 46/91/43
f 46/91/43 32/74/43 35/78/43
f 35/78/43 37/80/43 57/104/43
f 57/104/43 60/108/43 28/68/43
f 28/68/43 61/110/43 46/91/43
f 46/91/43 35/78/43 57/104/43
f 54/101/37 70/122/44 69/120/44
f 38/82/27 53/99/34 57/104/34
f 70/122/44 29/69/45 30/70/45
