# Blender 3.4.1
# www.blender.org
mtllib light.mtl
o light
v -1.000000 0.150000 -0.050000
v 1.000000 0.150000 -0.050000
v -1.000000 0.150000 0.050000
v 1.000000 0.150000 0.050000
v -1.000000 0.100000 -0.050000
v 1.000000 0.100000 -0.050000
v 1.000000 0.100000 0.050000
v -1.000000 0.100000 0.050000
vn -0.0000 -0.0000 -1.0000
vn 1.0000 -0.0000 -0.0000
vn -0.0000 -0.0000 1.0000
vn -1.0000 -0.0000 -0.0000
vn -0.0000 1.0000 -0.0000
vt 0.144283 0.664214
vt 0.162512 0.838491
vt 0.319263 0.663773
vt 0.337492 0.838050
vt 0.059000 0.551170
vt 0.059000 0.920062
vt 0.422775 0.951094
vt 0.422775 0.582201
s 0
usemtl Material
f 1/1/1 6/6/1 5/5/1
f 2/2/2 7/7/2 6/6/2
f 4/4/3 8/8/3 7/7/3
f 3/3/4 5/5/4 8/8/4
f 2/2/5 3/3/5 4/4/5
f 1/1/1 2/2/1 6/6/1
f 2/2/2 4/4/2 7/7/2
f 4/4/3 3/3/3 8/8/3
f 3/3/4 1/1/4 5/5/4
f 2/2/5 1/1/5 3/3/5
o body
v -1.000000 0.000000 -0.050000
v 1.000000 0.000000 -0.050000
v -1.000000 0.000000 0.050000
v 1.000000 0.000000 0.050000
v -1.000000 0.100000 -0.050000
v 1.000000 0.100000 -0.050000
v 1.000000 0.100000 0.050000
v -1.000000 0.100000 0.050000
vn -0.0000 -1.0000 -0.0000
vn -1.0000 -0.0000 -0.0000
vn -0.0000 -0.0000 1.0000
vn 1.0000 -0.0000 -0.0000
vn -0.0000 -0.0000 -1.0000
vt 0.765216 0.725382
vt 0.784346 0.806467
vt 0.682844 0.736101
vt 0.701973 0.817186
vt 0.920961 0.589712
vt 0.920961 0.971246
vt 0.546229 0.952857
vt 0.546229 0.571323
s 0
usemtl Material
f 12/12/6 9/9/6 10/10/6
f 16/16/7 9/9/7 11/11/7
f 15/15/8 11/11/8 12/12/8
f 14/14/9 12/12/9 10/10/9
f 13/13/10 10/10/10 9/9/10
f 12/12/6 11/11/6 9/9/6
f 16/16/7 13/13/7 9/9/7
f 15/15/8 16/16/8 11/11/8
f 14/14/9 15/15/9 12/12/9
f 13/13/10 14/14/10 10/10/10
